#define sieve_width 128
#define sieve_height 64
static unsigned char sieve_bits[] = {
 0x00, 0x00, 0x00, 0x00, 0x00, 0x00, 0x00, 0x00, 0x00, 0x00, 0x00, 0x00,
 0x00, 0x00, 0x00, 0x00, 0x00, 0x00, 0x00, 0x00, 0x00, 0x00, 0x00, 0x00,
 0x00, 0x00, 0x00, 0x00, 0x00, 0x00, 0x00, 0x00, 0x00, 0x00, 0x00, 0x00,
 0x00, 0x00, 0x00, 0x00, 0x00, 0x00, 0x00, 0x00, 0x00, 0x00, 0x00, 0x00,
 0x00, 0x00, 0x00, 0x00, 0x00, 0x00, 0x00, 0x00, 0x00, 0x00, 0x00, 0x00,
 0x00, 0x00, 0x00, 0x00, 0x00, 0x00, 0x00, 0x00, 0x00, 0x00, 0x00, 0x00,
 0x00, 0x00, 0x00, 0x00, 0x00, 0x00, 0x00, 0x00, 0x00, 0x00, 0x00, 0x00,
 0x00, 0x00, 0x00, 0x00, 0x00, 0x00, 0x00, 0x00, 0x00, 0x00, 0x00, 0x00,
 0x00, 0x00, 0x00, 0x00, 0x00, 0x00, 0x00, 0x00, 0x00, 0x00, 0x00, 0x00,
 0x00, 0x00, 0x00, 0x00, 0x00, 0x00, 0x00, 0x00, 0x00, 0x00, 0x00, 0x00,
 0x00, 0x00, 0x00, 0x00, 0x00, 0x00, 0x00, 0x00, 0x00, 0x00, 0x00, 0x00,
 0x00, 0x00, 0x00, 0x00, 0x00, 0x00, 0x00, 0x00, 0x00, 0x00, 0x00, 0x00,
 0x00, 0x00, 0x00, 0x00, 0x00, 0x00, 0x00, 0x00, 0x00, 0x00, 0x00, 0x00,
 0x00, 0x00, 0x00, 0x00, 0x80, 0x7F, 0xC0, 0x3F, 0xE0, 0x1F, 0xF0, 0x0F,
 0xF8, 0x07, 0xFC, 0x03, 0xFE, 0x01, 0xFF, 0x00, 0x40, 0x80, 0x20, 0x40,
 0x10, 0x20, 0x08, 0x10, 0x04, 0x08, 0x02, 0x04, 0x01, 0x82, 0x00, 0x01,
 0x20, 0x00, 0x11, 0x80, 0x08, 0x40, 0x04, 0x20, 0x02, 0x10, 0x01, 0x88,
 0x00, 0x44, 0x00, 0x02, 0x20, 0x00, 0x11, 0x80, 0x08, 0x40, 0x04, 0x20,
 0x02, 0x10, 0x01, 0x88, 0x00, 0x44, 0x00, 0x02, 0x20, 0x00, 0x11, 0x80,
 0x08, 0x40, 0x04, 0x20, 0x02, 0x10, 0x01, 0x88, 0x00, 0x44, 0x00, 0x02,
 0x20, 0x00, 0x11, 0x80, 0x08, 0x40, 0x04, 0x20, 0x02, 0x10, 0x01, 0x88,
 0x00, 0x44, 0x00, 0x02, 0x20, 0x00, 0x11, 0x80, 0x08, 0x40, 0x04, 0x20,
 0x02, 0x10, 0x01, 0x88, 0x00, 0x44, 0x00, 0x02, 0x20, 0x00, 0x11, 0x80,
 0x08, 0x40, 0x04, 0x20, 0x02, 0x10, 0x01, 0x88, 0x00, 0x44, 0x00, 0x02,
 0x20, 0x00, 0x11, 0x80, 0x08, 0x40, 0x04, 0x20, 0x02, 0x10, 0x01, 0x88,
 0x00, 0x44, 0x00, 0x02, 0x20, 0x00, 0x11, 0x80, 0x08, 0x40, 0x04, 0x20,
 0x02, 0x10, 0x01, 0x88, 0x00, 0x44, 0x00, 0x02, 0x20, 0x00, 0x11, 0x80,
 0x08, 0x40, 0x04, 0x20, 0x02, 0x10, 0x01, 0x88, 0x00, 0x44, 0x00, 0x02,
 0x20, 0x00, 0x11, 0x80, 0x08, 0x40, 0x04, 0x20, 0x02, 0x10, 0x01, 0x88,
 0x00, 0x44, 0x00, 0x02, 0x20, 0x00, 0x11, 0x80, 0x08, 0x40, 0x04, 0x20,
 0x02, 0x10, 0x01, 0x88, 0x00, 0x44, 0x00, 0x02, 0x20, 0x00, 0x11, 0x80,
 0x08, 0x40, 0x04, 0x20, 0x02, 0x10, 0x01, 0x88, 0x00, 0x44, 0x00, 0x02,
 0x20, 0x00, 0x11, 0x80, 0x08, 0x40, 0x04, 0x20, 0x02, 0x10, 0x01, 0x88,
 0x00, 0x44, 0x00, 0x02, 0x20, 0x00, 0x11, 0x80, 0x08, 0x40, 0x04, 0x20,
 0x02, 0x10, 0x01, 0x88, 0x00, 0x44, 0x00, 0x02, 0x20, 0x00, 0x11, 0x80,
 0x08, 0x40, 0x04, 0x20, 0x02, 0x10, 0x01, 0x88, 0x00, 0x44, 0x00, 0x02,
 0x20, 0x00, 0x11, 0x80, 0x08, 0x40, 0x04, 0x20, 0x02, 0x10, 0x01, 0x88,
 0x00, 0x44, 0x00, 0x02, 0x20, 0x00, 0x11, 0x80, 0x08, 0x40, 0x04, 0x20,
 0x02, 0x10, 0x01, 0x88, 0x00, 0x44, 0x00, 0x02, 0x40, 0x80, 0x20, 0x40,
 0x10, 0x20, 0x08, 0x10, 0x04, 0x08, 0x02, 0x04, 0x01, 0x82, 0x00, 0x01,
 0x80, 0x7F, 0xC0, 0x3F, 0xE0, 0x1F, 0xF0, 0x0F, 0xF8, 0x07, 0xFC, 0x03,
 0xFE, 0x01, 0xFF, 0x00, 0x00, 0x00, 0x00, 0x00, 0x00, 0x00, 0x00, 0x00,
 0x00, 0x00, 0x00, 0x00, 0x00, 0x00, 0x00, 0x00, 0x00, 0x00, 0x00, 0x00,
 0x00, 0x00, 0x00, 0x00, 0x00, 0x00, 0x00, 0x00, 0x00, 0x00, 0x00, 0x00,
 0x80, 0x7F, 0xC0, 0x3F, 0xE0, 0x1F, 0xF0, 0x0F, 0xF8, 0x07, 0xFC, 0x03,
 0xFE, 0x01, 0xFF, 0x00, 0x40, 0x80, 0x20, 0x40, 0x10, 0x20, 0x08, 0x10,
 0x04, 0x08, 0x02, 0x04, 0x01, 0x82, 0x00, 0x01, 0x20, 0x00, 0x11, 0x80,
 0x08, 0x40, 0x04, 0x20, 0x02, 0x10, 0x01, 0x88, 0x00, 0x44, 0x00, 0x02,
 0x20, 0x00, 0x11, 0x80, 0x08, 0x40, 0x04, 0x20, 0x02, 0x10, 0x01, 0x88,
 0x00, 0x44, 0x00, 0x02, 0x20, 0x00, 0x11, 0x80, 0x08, 0x40, 0x04, 0x20,
 0x02, 0x10, 0x01, 0x88, 0x00, 0x44, 0x00, 0x02, 0x20, 0x00, 0x11, 0x80,
 0x08, 0x40, 0x04, 0x20, 0x02, 0x10, 0x01, 0x88, 0x00, 0x44, 0x00, 0x02,
 0x20, 0x00, 0x11, 0x80, 0x08, 0x40, 0x04, 0x20, 0x02, 0x10, 0x01, 0x88,
 0x00, 0x44, 0x00, 0x02, 0x20, 0x00, 0x11, 0x80, 0x08, 0x40, 0x04, 0x20,
 0x02, 0x10, 0x01, 0x88, 0x00, 0x44, 0x00, 0x02, 0x20, 0x00, 0x11, 0x80,
 0x08, 0x40, 0x04, 0x20, 0x02, 0x10, 0x01, 0x88, 0x00, 0x44, 0x00, 0x02,
 0x20, 0x00, 0x11, 0x80, 0x08, 0x40, 0x04, 0x20, 0x02, 0x10, 0x01, 0x88,
 0x00, 0x44, 0x00, 0x02, 0x20, 0x00, 0x11, 0x80, 0x08, 0x40, 0x04, 0x20,
 0x02, 0x10, 0x01, 0x88, 0x00, 0x44, 0x00, 0x02, 0x20, 0x00, 0x11, 0x80,
 0x08, 0x40, 0x04, 0x20, 0x02, 0x10, 0x01, 0x88, 0x00, 0x44, 0x00, 0x02,
 0x20, 0x00, 0x11, 0x80, 0x08, 0x40, 0x04, 0x20, 0x02, 0x10, 0x01, 0x88,
 0x00, 0x44, 0x00, 0x02, 0x20, 0x00, 0x11, 0x80, 0x08, 0x40, 0x04, 0x20,
 0x02, 0x10, 0x01, 0x88, 0x00, 0x44, 0x00, 0x02, 0x20, 0x00, 0x11, 0x80,
 0x08, 0x40, 0x04, 0x20, 0x02, 0x10, 0x01, 0x88, 0x00, 0x44, 0x00, 0x02,
 0x20, 0x00, 0x11, 0x80, 0x08, 0x40, 0x04, 0x20, 0x02, 0x10, 0x01, 0x88,
 0x00, 0x44, 0x00, 0x02, 0x20, 0x00, 0x11, 0x80, 0x08, 0x40, 0x04, 0x20,
 0x02, 0x10, 0x01, 0x88, 0x00, 0x44, 0x00, 0x02, 0x20, 0x00, 0x11, 0x80,
 0x08, 0x40, 0x04, 0x20, 0x02, 0x10, 0x01, 0x88, 0x00, 0x44, 0x00, 0x02,
 0x20, 0x00, 0x11, 0x80, 0x08, 0x40, 0x04, 0x20, 0x02, 0x10, 0x01, 0x88,
 0x00, 0x44, 0x00, 0x02, 0x40, 0x80, 0x20, 0x40, 0x10, 0x20, 0x08, 0x10,
 0x04, 0x08, 0x02, 0x04, 0x01, 0x82, 0x00, 0x01, 0x80, 0x7F, 0xC0, 0x3F,
 0xE0, 0x1F, 0xF0, 0x0F, 0xF8, 0x07, 0xFC, 0x03, 0xFE, 0x01, 0xFF, 0x00,
 0x00, 0x00, 0x00, 0x00, 0x00, 0x00, 0x00, 0x00, 0x00, 0x00, 0x00, 0x00,
 0x00, 0x00, 0x00, 0x00, 0x00, 0x00, 0x00, 0x00, 0x00, 0x00, 0x00, 0x00,
 0x00, 0x00, 0x00, 0x00, 0x00, 0x00, 0x00, 0x00, 0x00, 0x00, 0x00, 0x00,
 0x00, 0x00, 0x00, 0x00, 0x00, 0x00, 0x00, 0x00, 0x00, 0x00, 0x00, 0x00,
 0x00, 0x00, 0x00, 0x00, 0x00, 0x00, 0x00, 0x00, 0x00, 0x00, 0x00, 0x00,
 0x00, 0x00, 0x00, 0x00, 0x00, 0x00, 0x00, 0x00, 0x00, 0x00, 0x00, 0x00,
 0x00, 0x00, 0x00, 0x00, 0x00, 0x00, 0x00, 0x00, 0x00, 0x00, 0x00, 0x00,
 0x00, 0x00, 0x00, 0x00, 0x00, 0x00, 0x00, 0x00, 0x00, 0x00, 0x00, 0x00,
 0x00, 0x00, 0x00, 0x00, 0x00, 0x00, 0x00, 0x00, 0x00, 0x00, 0x00, 0x00,
 0x00, 0x00, 0x00, 0x00, 0x00, 0x00, 0x00, 0x00, 0x00, 0x00, 0x00, 0x00,
 0x00, 0x00, 0x00, 0x00, 0x00, 0x00, 0x00, 0x00, 0x00, 0x00, 0x00, 0x00,
 0x00, 0x00, 0x00, 0x00, 0x00, 0x00, 0x00, 0x00, 0x00, 0x00, 0x00, 0x00,
 0x00, 0x00, 0x00, 0x00, 0x00, 0x00, 0x00, 0x00, 0x00, 0x00, 0x00, 0x00,
 0x00, 0x00, 0x00, 0x00 };
